<mxfile host="app.diagrams.net" modified="2024-02-25T09:17:37.298Z" agent="Mozilla/5.0 (Macintosh; Intel Mac OS X 10_15_7) AppleWebKit/537.36 (KHTML, like Gecko) Chrome/120.0.0.0 Safari/537.36" version="23.1.6" etag="q6dwK_t_DcLsnWYWXygH" type="github">
  <diagram name="Page-1" id="0hYNZD5ftcN5-zLcenCU">
    <mxGraphModel>
      <root>
        <mxCell id="0" />
        <mxCell id="1" parent="0" />
      </root>
    </mxGraphModel>
  </diagram>
</mxfile>
